<?xml version="1.0" encoding="UTF-8" standalone="no"?><!DOCTYPE svg PUBLIC "-//W3C//DTD SVG 1.1//EN" "http://www.w3.org/Graphics/SVG/1.1/DTD/svg11.dtd"><svg width="100%" height="100%" viewBox="0 0 75 75" version="1.1" xmlns="http://www.w3.org/2000/svg" xmlns:xlink="http://www.w3.org/1999/xlink" xml:space="preserve" xmlns:serif="http://www.serif.com/" style="fill-rule:evenodd;clip-rule:evenodd;stroke-linejoin:round;stroke-miterlimit:2;"><clipPath id="_clip1"><rect x="0" y="0" width="75" height="75"/></clipPath><g clip-path="url(#_clip1)"><g><g><path d="M17.544,-0c0.019,12.107 -0.007,38.221 -0,48.589c14.096,-0.595 16.305,14.528 17.571,17.218c-0.378,-49.453 4.553,-64.275 -17.571,-65.807Z" style="fill:#f06;"/></g><g><path d="M39.766,16.926c-0.028,11.869 -0.18,40.415 0,48.881c8.095,-6.866 18.673,-4.212 26.316,-3.823c0.15,-8.381 0.146,-48.706 0.146,-48.706c0,0 -16.346,-2.655 -26.462,3.648Z" style="fill:#f06;"/></g><g><path d="M8.918,8.6l4.386,0c0,0 -0.267,35.829 0,44.367c14.428,-1.188 16.279,5.667 17.398,10.36c-8.051,-3.791 -21.968,-1.131 -21.968,-1.131l0.184,-53.596Z" style="fill:#f06;"/></g><g><path d="M0,17.802l4.386,0.145c-0,0 -0.094,39.396 -0,48.152c18.952,0.091 21.74,-1.724 29.544,4.42c2.763,0.006 3.754,-0.003 7.152,-0.042c7.146,-6.615 15.507,-3.657 29.386,-4.378c0.086,-8.857 -0,-44.066 -0,-44.066l4.386,0c-0,0 0.042,38.641 -0,48.444c-22.082,-0.187 -27.142,-1.213 -32.018,4.377c-4.197,0.016 -7.08,0.018 -10.965,0c-4.008,-5.788 -11.495,-4.303 -31.871,-4.377c0.019,-9.135 0,-52.675 0,-52.675Z" style="fill:#f06;"/></g></g></g></svg>