<?xml version="1.0" encoding="UTF-8" standalone="no"?>
<!DOCTYPE svg PUBLIC "-//W3C//DTD SVG 1.1//EN" "http://www.w3.org/Graphics/SVG/1.1/DTD/svg11.dtd">
<svg width="100%" height="100%" viewBox="0 0 127 127" version="1.1" xmlns="http://www.w3.org/2000/svg" xmlns:xlink="http://www.w3.org/1999/xlink" xml:space="preserve" xmlns:serif="http://www.serif.com/" style="fill-rule:evenodd;clip-rule:evenodd;stroke-linejoin:round;stroke-miterlimit:2;">
    <g transform="matrix(0.24,0,0,0.24,-1252.76,-346.966)">
        <path d="M5482.42,1620.58L5316.6,1454.77C5304.5,1442.67 5284.86,1442.67 5272.76,1454.77L5228.92,1498.61C5216.82,1510.7 5216.82,1530.35 5228.92,1542.45L5394.74,1708.26L5228.92,1874.08C5216.82,1886.18 5216.82,1905.82 5228.92,1917.92L5272.76,1961.76C5284.86,1973.86 5304.5,1973.86 5316.6,1961.76L5482.42,1795.94L5648.23,1961.76C5660.33,1973.86 5679.98,1973.86 5692.07,1961.76L5735.92,1917.92C5748.01,1905.82 5748.01,1886.18 5735.92,1874.08L5570.1,1708.26L5735.92,1542.45C5748.01,1530.35 5748.01,1510.7 5735.92,1498.61L5692.07,1454.77C5679.98,1442.67 5660.33,1442.67 5648.23,1454.77L5482.42,1620.58Z" style="fill:white;"/>
    </g>
</svg>
