<?xml version="1.0" encoding="UTF-8" standalone="no"?><!DOCTYPE svg PUBLIC "-//W3C//DTD SVG 1.1//EN" "http://www.w3.org/Graphics/SVG/1.1/DTD/svg11.dtd"><svg width="100%" height="100%" viewBox="0 0 4084 4084" version="1.1" xmlns="http://www.w3.org/2000/svg" xmlns:xlink="http://www.w3.org/1999/xlink" xml:space="preserve" xmlns:serif="http://www.serif.com/" style="fill-rule:evenodd;clip-rule:evenodd;stroke-linejoin:round;stroke-miterlimit:2;"><path d="M4058.87,468.109c-156.667,-157.5 -302.917,-334.167 -484.583,-463.75c-166.667,-34.584 -246.667,145.416 -361.25,229.583c193.333,224.583 418.75,422.917 626.666,635.417c94.167,-112.084 317.5,-227.084 219.167,-401.25Zm-103.333,848.333c-132.084,132.5 -268.75,261.667 -396.25,399.167c-3.334,531.25 1.25,1062.5 -1.667,1594.17c-2.5,195.834 -174.167,369.584 -370,376.25c-805.833,3.334 -1612.5,3.334 -2418.33,0.417c-217.5,-5.833 -391.667,-214.167 -374.584,-427.917c-0.416,-769.166 -0.416,-1537.92 0,-2306.25c-16.666,-212.916 158.334,-417.916 373.334,-425.416c533.75,-7.084 1067.92,0.416 1601.25,-3.75c138.333,-125 266.25,-262.084 398.75,-393.75c-710.834,-0 -1420.83,-3.75 -2131.67,2.083c-331.667,5.833 -629.167,295.833 -635,629.167c-0.833,896.666 -3.333,1792.92 1.667,2689.58c1.25,322.917 275.416,602.917 593.333,633.333l2792.5,0c301.25,-52.916 559.583,-315.833 563.333,-628.75c9.167,-712.5 2.084,-1425.83 3.334,-2138.33Zm-212.917,-348.75c-209.167,-210.417 -420,-419.583 -631.667,-627.917c-463.333,460 -927.5,918.75 -1388.33,1381.25c208.75,210 418.333,419.167 630.417,626.25c463.75,-459.166 927.083,-919.583 1389.58,-1379.58Zm-2362.5,1718.33c283.75,-77.083 435,-125.833 718.75,-202.083c75.833,-24.167 126.25,-38.75 165.417,-54.167c-200.834,-191.25 -431.667,-427.083 -632.084,-620c-84.583,292.084 -167.916,584.167 -252.083,876.25Z" style="fill:#fff;fill-rule:nonzero;"/></svg>