<?xml version="1.0" encoding="UTF-8" standalone="no"?>
<!DOCTYPE svg PUBLIC "-//W3C//DTD SVG 1.1//EN" "http://www.w3.org/Graphics/SVG/1.1/DTD/svg11.dtd">
<svg width="100%" height="100%" viewBox="0 0 127 100" version="1.1" xmlns="http://www.w3.org/2000/svg" xmlns:xlink="http://www.w3.org/1999/xlink" xml:space="preserve" xmlns:serif="http://www.serif.com/" style="fill-rule:evenodd;clip-rule:evenodd;stroke-linejoin:round;stroke-miterlimit:2;">
    <g transform="matrix(0.24,0,0,0.24,-1388.6,-358.023)">
        <g transform="matrix(1,0,0,0.775701,566,-74.377)">
            <path d="M5744.99,2045.75C5744.99,2030.99 5735.69,2019 5724.24,2019L5240.6,2019C5229.14,2019 5219.85,2030.99 5219.85,2045.75L5219.85,2099.25C5219.85,2114.01 5229.14,2126 5240.6,2126L5724.24,2126C5735.69,2126 5744.99,2114.01 5744.99,2099.25L5744.99,2045.75Z" style="fill:white;"/>
        </g>
        <g transform="matrix(1,0,0,0.775701,566,258.623)">
            <path d="M5744.99,2045.75C5744.99,2030.99 5735.69,2019 5724.24,2019L5240.6,2019C5229.14,2019 5219.85,2030.99 5219.85,2045.75L5219.85,2099.25C5219.85,2114.01 5229.14,2126 5240.6,2126L5724.24,2126C5735.69,2126 5744.99,2114.01 5744.99,2099.25L5744.99,2045.75Z" style="fill:white;"/>
        </g>
        <g transform="matrix(1,0,0,0.775701,566,92.623)">
            <path d="M5744.99,2045.75C5744.99,2030.99 5735.69,2019 5724.24,2019L5240.6,2019C5229.14,2019 5219.85,2030.99 5219.85,2045.75L5219.85,2099.25C5219.85,2114.01 5229.14,2126 5240.6,2126L5724.24,2126C5735.69,2126 5744.99,2114.01 5744.99,2099.25L5744.99,2045.75Z" style="fill:white;"/>
        </g>
    </g>
</svg>
