<?xml version="1.0" encoding="UTF-8" standalone="no"?>
<!DOCTYPE svg PUBLIC "-//W3C//DTD SVG 1.1//EN" "http://www.w3.org/Graphics/SVG/1.1/DTD/svg11.dtd">
<svg width="100%" height="100%" viewBox="0 0 178 178" version="1.1" xmlns="http://www.w3.org/2000/svg" xmlns:xlink="http://www.w3.org/1999/xlink" xml:space="preserve" xmlns:serif="http://www.serif.com/" style="fill-rule:evenodd;clip-rule:evenodd;stroke-linejoin:round;stroke-miterlimit:2;">
    <g transform="matrix(1,0,0,1,-1023.49,-1596)">
        <g transform="matrix(1.0869,0,0,0.989743,-263.937,-89.5318)">
            <path d="M1219,1829C1226.17,1828 1262,1833 1262,1833L1262,1882L1219,1879C1219,1879 1219.03,1873 1219,1873C1230.98,1867.22 1231.25,1847.53 1218.49,1840.15C1218.57,1836.43 1218.92,1829.19 1219,1829Z" style="fill:rgb(255,0,102);"/>
        </g>
        <g transform="matrix(-1.0869,0,0,0.989743,2488.63,-89.5318)">
            <path d="M1219,1829C1226.17,1828 1262,1833 1262,1833L1262,1882L1219,1879C1219,1879 1219.03,1873 1219,1873C1230.98,1867.22 1231.25,1847.53 1218.49,1840.15C1218.57,1836.43 1218.92,1829.19 1219,1829Z" style="fill:rgb(255,0,102);"/>
        </g>
        <g transform="matrix(1.0869,0,0,0.989743,-264.493,-93.5562)">
            <circle cx="1203.5" cy="1861.5" r="18.5" style="fill:rgb(255,0,102);"/>
        </g>
        <g transform="matrix(1.0869,0,0,0.989743,-127.543,-93.5562)">
            <circle cx="1203.5" cy="1861.5" r="18.5" style="fill:rgb(255,0,102);"/>
        </g>
        <g transform="matrix(1.0869,0,0,0.989743,-263.937,-89.5318)">
            <path d="M1212,1833L1212,1833C1212.01,1833.01 1212.01,1833 1212,1833C1210.46,1807.75 1266.34,1827 1266.34,1827C1266.34,1827 1322.31,1809.12 1321.01,1833.91C1320.98,1833.97 1320.97,1834 1321,1834C1321,1833.97 1321,1833.94 1321.01,1833.91C1321.34,1833.28 1325.42,1829.36 1336,1830C1327.83,1797.33 1308.11,1800.71 1308,1800C1294.25,1776.53 1325.29,1702.62 1266.34,1703C1204.38,1703.14 1240.57,1777.83 1224,1800C1223.65,1800.11 1207,1798.5 1196,1830C1206.32,1827.47 1211.81,1832.76 1212,1833ZM1292,1798.01C1291.86,1798.04 1287.16,1795.64 1285,1790C1271.4,1801.2 1263.6,1801.02 1248,1790C1245.39,1795.56 1240.35,1798.02 1240.25,1798L1240.24,1798C1240.24,1798 1240.24,1798 1240.25,1798C1245.61,1811.86 1280.75,1817.52 1292,1798.01C1292,1798 1292,1798 1292,1798L1292,1798.01ZM1238,1751C1243.81,1709.99 1274.04,1756.36 1293,1753.94C1301.84,1743.71 1300.75,1768.71 1292,1766C1282.05,1788.37 1275.92,1790.49 1266.12,1792.94C1255.58,1790.62 1247.67,1786.98 1240.16,1766C1233.33,1764.75 1231.25,1748.88 1238,1751Z" style="fill:rgb(255,0,102);"/>
        </g>
    </g>
</svg>
