<svg class="svg-icon" style="width: 1em; height: 1em;vertical-align: middle;fill: #FFF;overflow: hidden;" viewBox="0 0 1024 1024" version="1.1" xmlns="http://www.w3.org/2000/svg"><path d="M849.05984 221.88032h-167.26016v-85.36064a30.72 30.72 0 0 0-30.72-30.72h-245.76a30.72 30.72 0 0 0-30.72 30.72v85.36064h-167.26016a40.96 40.96 0 0 0 0 81.92h40.98048v597.36064a51.2 51.2 0 0 0 51.2 51.2h457.35936a51.2 51.2 0 0 0 51.2-51.2v-597.36064h40.98048a40.96 40.96 0 0 0 0-81.92z m-453.98016 614.44096a30.72 30.72 0 0 1-61.44 0v-430.08a30.72 30.72 0 0 1 61.44 0v430.08z m163.84 0a30.72 30.72 0 0 1-61.44 0v-430.08a30.72 30.72 0 0 1 61.44 0v430.08z m61.44-614.44096h-184.32v-54.64064h184.32v54.64064z m102.4 614.44096a30.72 30.72 0 0 1-61.44 0v-430.08a30.72 30.72 0 0 1 61.44 0v430.08z"  /></svg>