<?xml version="1.0" encoding="UTF-8" standalone="no"?>
<!DOCTYPE svg PUBLIC "-//W3C//DTD SVG 1.1//EN" "http://www.w3.org/Graphics/SVG/1.1/DTD/svg11.dtd">
<svg width="100%" height="100%" viewBox="0 0 512 512" version="1.1" xmlns="http://www.w3.org/2000/svg" xmlns:xlink="http://www.w3.org/1999/xlink" xml:space="preserve" xmlns:serif="http://www.serif.com/" style="fill-rule:evenodd;clip-rule:evenodd;stroke-linejoin:round;stroke-miterlimit:2;">
    <g transform="matrix(1.07266,0,0,1,-18.5998,0)">
        <g>
            <path d="M102.38,120.188L339.5,120.188C351.048,120.188 360.411,110.826 360.411,99.278C360.411,87.73 351.049,78.367 339.5,78.367L102.38,78.367C90.832,78.367 81.47,87.729 81.47,99.278C81.47,110.827 90.832,120.188 102.38,120.188Z" style="fill:rgb(174,0,70);fill-rule:nonzero;"/>
            <path d="M102.38,191.875L283.783,191.875C295.331,191.875 304.693,182.513 304.693,170.964C304.693,159.415 295.331,150.054 283.783,150.054L102.38,150.054C90.832,150.054 81.47,159.416 81.47,170.964C81.47,182.512 90.832,191.875 102.38,191.875Z" style="fill:rgb(174,0,70);fill-rule:nonzero;"/>
            <path d="M102.38,263.561L283.783,263.561C295.331,263.561 304.693,254.199 304.693,242.651C304.693,231.103 295.331,221.741 283.783,221.741L102.38,221.741C90.832,221.741 81.47,231.103 81.47,242.651C81.47,254.199 90.832,263.561 102.38,263.561Z" style="fill:rgb(174,0,70);fill-rule:nonzero;"/>
            <path d="M211.293,314.337C211.293,302.789 201.931,293.427 190.383,293.427L102.38,293.427C90.832,293.427 81.47,302.789 81.47,314.337C81.47,325.885 90.832,335.247 102.38,335.247L190.382,335.247C201.93,335.248 211.293,325.886 211.293,314.337Z" style="fill:rgb(174,0,70);fill-rule:nonzero;"/>
            <path d="M424.536,163.485L424.536,20.91C424.536,9.362 415.174,0 403.626,0L38.25,0C26.702,0 17.34,9.362 17.34,20.91L17.34,491.09C17.34,502.638 26.702,512 38.25,512L403.626,512C415.174,512 424.536,502.638 424.536,491.09L424.536,310.596L478.092,257.04C518.336,216.791 479.336,149.345 424.536,163.485ZM382.715,470.179L59.161,470.179L59.161,41.821L382.716,41.821L382.716,194.38L217.697,359.4C214.913,362.178 212.761,366.022 211.942,370.275L199.965,431.624C197.442,444.537 207.352,456.541 220.488,456.541C223.339,456.541 219.061,457.214 285.932,444.159C290.182,443.309 293.895,441.239 296.713,438.418L382.715,352.416L382.715,470.179ZM448.521,227.468C432.915,243.074 306.504,369.484 281.929,394.059L262.054,374.184C266.051,370.187 425.592,210.646 428.639,207.6C441.762,194.49 461.684,214.304 448.521,227.468Z" style="fill:rgb(174,0,70);fill-rule:nonzero;"/>
        </g>
    </g>
</svg>
