<?xml version="1.0" encoding="UTF-8" standalone="no"?><!DOCTYPE svg PUBLIC "-//W3C//DTD SVG 1.1//EN" "http://www.w3.org/Graphics/SVG/1.1/DTD/svg11.dtd"><svg width="100%" height="100%" viewBox="0 0 672 163" version="1.1" xmlns="http://www.w3.org/2000/svg" xmlns:xlink="http://www.w3.org/1999/xlink" xml:space="preserve" xmlns:serif="http://www.serif.com/" style="fill-rule:evenodd;clip-rule:evenodd;stroke-linecap:square;stroke-miterlimit:2;"><g><g><path d="M262.391,144.293c9.489,-0 17.592,-3.543 24.309,-10.629c6.716,-7.087 10.074,-16.391 10.074,-27.913c0,-11.523 -3.358,-20.612 -10.074,-27.266c-6.717,-6.655 -14.789,-9.983 -24.216,-9.983c-9.428,0 -17.5,3.451 -24.216,10.352c-6.717,6.901 -10.075,16.052 -10.075,27.451c0,11.399 3.358,20.581 10.075,27.543c6.716,6.963 14.757,10.445 24.123,10.445Zm3.328,-90.394c13.925,-0 25.479,4.775 34.66,14.326c9.181,9.551 13.771,22.059 13.771,37.526c0,15.466 -4.621,28.159 -13.864,38.079c-9.242,9.921 -20.765,14.881 -34.567,14.881c-8.627,0 -16.175,-2.064 -22.645,-6.192c-6.47,-4.129 -11.43,-9.52 -14.881,-16.175l0,20.704l-16.821,-0l-0,-136.793l16.821,0l0,55.642c3.451,-6.532 8.411,-11.831 14.881,-15.898c6.47,-4.067 14.018,-6.1 22.645,-6.1Z" style="fill:#fff;fill-rule:nonzero;"/><path d="M362.829,144.847c9.49,0 17.716,-3.42 24.678,-10.259c6.963,-6.84 10.445,-16.298 10.445,-28.375c-0,-12.077 -3.328,-21.505 -9.982,-28.283c-6.655,-6.778 -14.758,-10.167 -24.309,-10.167c-9.551,0 -17.53,3.389 -23.938,10.167c-6.409,6.778 -9.613,16.236 -9.613,28.375c0,12.139 3.081,21.597 9.243,28.375c6.162,6.778 13.987,10.167 23.476,10.167Zm-36.046,-0.554c-9.243,-9.613 -13.864,-22.244 -13.864,-37.895c-0,-15.651 4.868,-28.314 14.603,-37.988c9.736,-9.674 21.936,-14.511 36.601,-14.511c14.666,-0 26.866,4.837 36.602,14.511c9.735,9.674 14.603,22.306 14.603,37.895c0,15.589 -5.083,28.221 -15.25,37.895c-10.167,9.674 -22.583,14.511 -37.249,14.511c-14.665,0 -26.68,-4.806 -36.046,-14.418Z" style="fill:#fff;fill-rule:nonzero;"/><path d="M464.288,144.847c9.489,0 17.715,-3.42 24.678,-10.259c6.963,-6.84 10.444,-16.298 10.444,-28.375c0,-12.077 -3.327,-21.505 -9.982,-28.283c-6.655,-6.778 -14.758,-10.167 -24.308,-10.167c-9.551,0 -17.531,3.389 -23.939,10.167c-6.408,6.778 -9.612,16.236 -9.612,28.375c-0,12.139 3.08,21.597 9.242,28.375c6.162,6.778 13.988,10.167 23.477,10.167Zm-36.047,-0.554c-9.242,-9.613 -13.864,-22.244 -13.864,-37.895c0,-15.651 4.868,-28.314 14.604,-37.988c9.735,-9.674 21.936,-14.511 36.601,-14.511c14.665,-0 26.865,4.837 36.601,14.511c9.736,9.674 14.603,22.306 14.603,37.895c0,15.589 -5.083,28.221 -15.25,37.895c-10.167,9.674 -22.583,14.511 -37.248,14.511c-14.665,0 -26.681,-4.806 -36.047,-14.418Z" style="fill:#fff;fill-rule:nonzero;"/><path d="M537.908,158.711l-16.822,0l0,-136.792l16.822,0l0,80.227l38.819,-44.92l23.662,0l-47.877,50.466l47.877,51.019l-22.737,0l-39.744,-44.55l0,44.55Z" style="fill:#fff;fill-rule:nonzero;"/><path d="M594.458,84.215c-0,-8.503 3.543,-15.682 10.629,-21.535c7.086,-5.854 16.267,-8.781 27.543,-8.781c11.276,-0 20.118,2.865 26.527,8.596c6.408,5.73 9.92,13.586 10.536,23.569l-17.376,-0c-0.246,-5.669 -2.157,-10.229 -5.73,-13.68c-3.574,-3.45 -8.535,-5.176 -14.881,-5.176c-6.347,0 -11.338,1.51 -14.973,4.529c-3.636,3.02 -5.454,6.902 -5.454,11.646c0,4.745 2.065,8.411 6.193,10.999c4.128,2.588 9.119,4.467 14.973,5.638c5.854,1.171 11.708,2.526 17.561,4.067c5.854,1.54 10.845,4.436 14.974,8.688c4.128,4.252 6.192,10.29 6.192,18.116c0,7.825 -3.543,14.418 -10.629,19.779c-7.086,5.361 -16.298,8.041 -27.636,8.041c-11.337,0 -20.426,-2.834 -27.266,-8.503c-6.839,-5.669 -10.567,-13.494 -11.183,-23.477l17.376,0c0.246,5.669 2.249,10.198 6.008,13.587c3.758,3.389 8.934,5.084 15.527,5.084c6.594,-0 11.77,-1.417 15.528,-4.252c3.759,-2.834 5.638,-6.439 5.638,-10.814c0,-4.375 -1.479,-7.856 -4.436,-10.444c-2.958,-2.588 -6.655,-4.375 -11.091,-5.361c-4.437,-0.986 -9.274,-2.157 -14.512,-3.512c-5.237,-1.356 -10.074,-2.804 -14.511,-4.344c-4.436,-1.541 -8.133,-4.221 -11.091,-8.041c-2.957,-3.821 -4.436,-8.627 -4.436,-14.419Z" style="fill:#fff;fill-rule:nonzero;"/></g></g><path d="M161.27,21.896c0,-2.586 2.1,-4.686 4.687,-4.686l32.694,-0c2.587,-0 4.687,2.1 4.687,4.686l0,132.128c0,2.587 -2.1,4.687 -4.687,4.687l-32.694,0c-2.587,0 -4.687,-2.1 -4.687,-4.687l0,-132.128Z"/><path d="M113.466,4.687c-0,-2.587 2.1,-4.687 4.686,-4.687l32.695,0c2.587,0 4.687,2.1 4.687,4.687l-0,149.337c-0,2.587 -2.1,4.687 -4.687,4.687l-32.695,0c-2.586,0 -4.686,-2.1 -4.686,-4.687l-0,-149.337Z"/><path d="M65.661,40.612c-0,-2.587 2.1,-4.687 4.687,-4.687l32.694,-0c2.587,-0 4.687,2.1 4.687,4.687l0,113.412c0,2.587 -2.1,4.687 -4.687,4.687l-32.694,0c-2.587,0 -4.687,-2.1 -4.687,-4.687l-0,-113.412Z"/><path d="M20.432,52.178c0.547,-2.528 3.044,-4.137 5.572,-3.59l31.955,6.914c2.529,0.547 4.137,3.044 3.59,5.572l-20.326,93.941c-0.547,2.528 -3.043,4.136 -5.572,3.589l-31.955,-6.914c-2.528,-0.547 -4.136,-3.043 -3.589,-5.571l20.325,-93.941Z"/><g><text x="75.142px" y="135.541px" style="font-family:'Poppins-Regular', 'Poppins';font-size:78.484px;fill:#ad0046;stroke:#ad0046;stroke-width:6.25px;">my</text></g></svg>