<?xml version="1.0" encoding="UTF-8" standalone="no"?>
<!DOCTYPE svg PUBLIC "-//W3C//DTD SVG 1.1//EN" "http://www.w3.org/Graphics/SVG/1.1/DTD/svg11.dtd">
<svg width="100%" height="100%" viewBox="0 0 649 166" version="1.1" xmlns="http://www.w3.org/2000/svg" xmlns:xlink="http://www.w3.org/1999/xlink" xml:space="preserve" xmlns:serif="http://www.serif.com/" style="fill-rule:evenodd;clip-rule:evenodd;stroke-linecap:square;stroke-miterlimit:2;">
    <g transform="matrix(1,0,0,1,-204,-601.289)">
        <g transform="matrix(3.69708,0,0,3.69708,396.507,758.336)">
            <g>
                <g transform="matrix(50,0,0,50,0,0)">
                    <path d="M0.351,-0.069C0.402,-0.069 0.446,-0.088 0.483,-0.127C0.519,-0.165 0.537,-0.215 0.537,-0.278C0.537,-0.34 0.519,-0.389 0.483,-0.425C0.446,-0.461 0.403,-0.479 0.352,-0.479C0.301,-0.479 0.257,-0.46 0.221,-0.423C0.184,-0.386 0.166,-0.336 0.166,-0.275C0.166,-0.213 0.184,-0.163 0.221,-0.126C0.257,-0.088 0.3,-0.069 0.351,-0.069ZM0.369,-0.558C0.444,-0.558 0.507,-0.532 0.557,-0.481C0.606,-0.429 0.631,-0.361 0.631,-0.278C0.631,-0.194 0.606,-0.125 0.556,-0.072C0.506,-0.018 0.444,0.009 0.369,0.009C0.322,0.009 0.282,-0.002 0.247,-0.025C0.212,-0.047 0.185,-0.076 0.166,-0.112L0.166,-0L0.075,-0L0.075,-0.74L0.166,-0.74L0.166,-0.439C0.185,-0.474 0.212,-0.503 0.247,-0.525C0.282,-0.547 0.322,-0.558 0.369,-0.558Z" style="fill:white;fill-rule:nonzero;"/>
                </g>
                <g transform="matrix(50,0,0,50,28.9964,0)">
                    <path d="M0.309,-0.066C0.36,-0.066 0.405,-0.085 0.443,-0.122C0.48,-0.159 0.499,-0.21 0.499,-0.275C0.499,-0.34 0.481,-0.391 0.445,-0.428C0.409,-0.465 0.365,-0.483 0.314,-0.483C0.262,-0.483 0.219,-0.465 0.184,-0.428C0.149,-0.391 0.132,-0.34 0.132,-0.275C0.132,-0.209 0.149,-0.158 0.182,-0.121C0.215,-0.084 0.258,-0.066 0.309,-0.066ZM0.114,-0.069C0.064,-0.121 0.039,-0.189 0.039,-0.274C0.039,-0.359 0.065,-0.427 0.118,-0.48C0.171,-0.532 0.237,-0.558 0.316,-0.558C0.395,-0.558 0.461,-0.532 0.514,-0.48C0.567,-0.427 0.593,-0.359 0.593,-0.275C0.593,-0.19 0.566,-0.122 0.511,-0.07C0.456,-0.017 0.388,0.009 0.309,0.009C0.23,0.009 0.165,-0.017 0.114,-0.069Z" style="fill:white;fill-rule:nonzero;"/>
                </g>
                <g transform="matrix(50,0,0,50,56.4392,0)">
                    <path d="M0.309,-0.066C0.36,-0.066 0.405,-0.085 0.443,-0.122C0.48,-0.159 0.499,-0.21 0.499,-0.275C0.499,-0.34 0.481,-0.391 0.445,-0.428C0.409,-0.465 0.365,-0.483 0.314,-0.483C0.262,-0.483 0.219,-0.465 0.184,-0.428C0.149,-0.391 0.132,-0.34 0.132,-0.275C0.132,-0.209 0.149,-0.158 0.182,-0.121C0.215,-0.084 0.258,-0.066 0.309,-0.066ZM0.114,-0.069C0.064,-0.121 0.039,-0.189 0.039,-0.274C0.039,-0.359 0.065,-0.427 0.118,-0.48C0.171,-0.532 0.237,-0.558 0.316,-0.558C0.395,-0.558 0.461,-0.532 0.514,-0.48C0.567,-0.427 0.593,-0.359 0.593,-0.275C0.593,-0.19 0.566,-0.122 0.511,-0.07C0.456,-0.017 0.388,0.009 0.309,0.009C0.23,0.009 0.165,-0.017 0.114,-0.069Z" style="fill:white;fill-rule:nonzero;"/>
                </g>
                <g transform="matrix(50,0,0,50,82.1498,0)">
                    <path d="M0.166,-0L0.075,-0L0.075,-0.74L0.166,-0.74L0.166,-0.306L0.376,-0.549L0.504,-0.549L0.245,-0.276L0.504,-0L0.381,-0L0.166,-0.241L0.166,-0Z" style="fill:white;fill-rule:nonzero;"/>
                </g>
                <g transform="matrix(50,0,0,50,99.7498,-0.103567)">
                    <path d="M0.055,-0.394C0.055,-0.44 0.074,-0.479 0.113,-0.511C0.151,-0.542 0.201,-0.558 0.262,-0.558C0.323,-0.558 0.37,-0.543 0.405,-0.512C0.44,-0.481 0.459,-0.438 0.462,-0.384L0.368,-0.384C0.367,-0.415 0.356,-0.439 0.337,-0.458C0.318,-0.477 0.291,-0.486 0.257,-0.486C0.222,-0.486 0.195,-0.478 0.176,-0.462C0.156,-0.445 0.146,-0.424 0.146,-0.399C0.146,-0.373 0.157,-0.353 0.18,-0.339C0.202,-0.325 0.229,-0.315 0.261,-0.309C0.292,-0.302 0.324,-0.295 0.356,-0.287C0.387,-0.278 0.414,-0.263 0.437,-0.24C0.459,-0.217 0.47,-0.184 0.47,-0.142C0.47,-0.099 0.451,-0.064 0.413,-0.035C0.374,-0.006 0.324,0.009 0.263,0.009C0.202,0.009 0.153,-0.006 0.116,-0.037C0.079,-0.068 0.058,-0.11 0.055,-0.164L0.149,-0.164C0.15,-0.133 0.161,-0.109 0.182,-0.091C0.202,-0.072 0.23,-0.063 0.266,-0.063C0.301,-0.063 0.329,-0.071 0.35,-0.086C0.37,-0.101 0.38,-0.121 0.38,-0.145C0.38,-0.168 0.372,-0.187 0.356,-0.201C0.34,-0.215 0.32,-0.225 0.296,-0.23C0.272,-0.235 0.246,-0.242 0.218,-0.249C0.189,-0.256 0.163,-0.264 0.139,-0.273C0.115,-0.281 0.095,-0.295 0.079,-0.316C0.063,-0.337 0.055,-0.363 0.055,-0.394Z" style="fill:white;fill-rule:nonzero;"/>
                </g>
            </g>
        </g>
        <g transform="matrix(-1.91218,0,0,1.91218,1223.84,-176.97)">
            <path d="M449,418.451C449,417.098 447.902,416 446.549,416L429.451,416C428.098,416 427,417.098 427,418.451L427,487.549C427,488.902 428.098,490 429.451,490L446.549,490C447.902,490 449,488.902 449,487.549L449,418.451Z"/>
        </g>
        <g transform="matrix(-1.91218,0,0,2.14475,1176.04,-290.926)">
            <path d="M449,418.185C449,416.979 447.902,416 446.549,416L429.451,416C428.098,416 427,416.979 427,418.185L427,487.815C427,489.021 428.098,490 429.451,490L446.549,490C447.902,490 449,489.021 449,487.815L449,418.185Z"/>
        </g>
        <g transform="matrix(-1.91218,0,0,1.65927,1128.23,-53.0444)">
            <path d="M449,418.825C449,417.266 447.902,416 446.549,416L429.451,416C428.098,416 427,417.266 427,418.825L427,487.175C427,488.734 428.098,490 429.451,490L446.549,490C447.902,490 449,488.734 449,487.175L449,418.825Z"/>
        </g>
        <g transform="matrix(-1.86894,-0.404376,-0.301459,1.39328,1189.98,250.848)">
            <path d="M449,419.288C449,417.473 447.902,416 446.549,416L429.451,416C428.098,416 427,417.473 427,419.288L427,486.712C427,488.527 428.098,490 429.451,490L446.549,490C447.902,490 449,488.527 449,486.712L449,419.288Z"/>
        </g>
        <g transform="matrix(1.56969,6.0055e-17,-6.0055e-17,1.56969,279.142,739.83)">
            <text x="0px" y="0px" style="font-family:'Poppins-Regular', 'Poppins';font-size:50px;fill:white;stroke:white;stroke-width:3.98px;">my</text>
        </g>
    </g>
</svg>
