<?xml version="1.0" encoding="UTF-8" standalone="no"?>
<!DOCTYPE svg PUBLIC "-//W3C//DTD SVG 1.1//EN" "http://www.w3.org/Graphics/SVG/1.1/DTD/svg11.dtd">
<svg width="100%" height="100%" viewBox="0 0 513 514" version="1.1" xmlns="http://www.w3.org/2000/svg" xmlns:xlink="http://www.w3.org/1999/xlink" xml:space="preserve" xmlns:serif="http://www.serif.com/" style="fill-rule:evenodd;clip-rule:evenodd;stroke-linejoin:round;stroke-miterlimit:2;">
    <g transform="matrix(1,0,0,1,-616,-2401)">
        <g transform="matrix(1,0,0,1,-882,667)">
            <path d="M1618,1734C1618.13,1816.97 1617.95,1995.94 1618,2067C1714.42,2062.92 1729.53,2166.56 1738.19,2185C1735.6,1846.08 1769.33,1744.5 1618,1734Z" style="fill:rgb(255,0,102);"/>
        </g>
        <g transform="matrix(1,0,0,1,-882,667)">
            <path d="M1770,1850C1769.81,1931.34 1768.77,2126.98 1770,2185C1825.37,2137.94 1897.72,2156.13 1950,2158.8C1951.03,2101.36 1951,1825 1951,1825C1951,1825 1839.19,1806.8 1770,1850Z" style="fill:rgb(255,0,102);"/>
        </g>
        <g transform="matrix(1,0,0,1,-882,667)">
            <path d="M1559,1792.94L1589,1792.94C1589,1792.94 1587.17,2038.49 1589,2097C1687.69,2088.86 1700.35,2135.84 1708,2168C1652.93,2142.02 1557.74,2160.25 1557.74,2160.25L1559,1792.94Z" style="fill:rgb(255,0,102);"/>
        </g>
        <g transform="matrix(1,0,0,1,-882,667)">
            <path d="M1498,1856L1528,1857C1528,1857 1527.36,2126.99 1528,2187C1657.63,2187.62 1676.7,2175.18 1730.08,2217.29C1748.98,2217.33 1755.76,2217.27 1779,2217C1827.88,2171.67 1885.07,2191.94 1980,2187C1980.59,2126.3 1980,1885 1980,1885L2010,1885C2010,1885 2010.29,2149.82 2010,2217C1858.96,2215.72 1824.35,2208.69 1791,2247C1762.29,2247.11 1742.57,2247.12 1716,2247C1688.58,2207.33 1637.37,2217.51 1498,2217C1498.13,2154.4 1498,1856 1498,1856Z" style="fill:rgb(255,0,102);"/>
        </g>
    </g>
</svg>
