<?xml version="1.0" encoding="UTF-8" standalone="no"?><!DOCTYPE svg PUBLIC "-//W3C//DTD SVG 1.1//EN" "http://www.w3.org/Graphics/SVG/1.1/DTD/svg11.dtd"><svg width="100%" height="100%" viewBox="0 0 75 76" version="1.1" xmlns="http://www.w3.org/2000/svg" xmlns:xlink="http://www.w3.org/1999/xlink" xml:space="preserve" xmlns:serif="http://www.serif.com/" style="fill-rule:evenodd;clip-rule:evenodd;stroke-linejoin:round;stroke-miterlimit:2;"><g><g><g><circle cx="36.945" cy="68.593" r="6.429" style="fill:#f06;"/></g><path d="M0,12.879l15,-0l13.286,46.714l36.428,-0l10.286,-36.857c0,-0 -5.216,-0.017 -9.857,-0c-0.052,7.131 0.197,19.29 -2.902,19.718c-10.78,0.12 -21.312,-0.038 -27.955,-0.004c-7.829,0.043 -6.866,-12.287 -6.857,-20.143c-2.793,-0.034 -6.858,0 -6.858,0l-3.857,-12l-16.714,0l-0,2.572Z" style="fill:#f06;"/><path d="M62.233,0.021c0.008,11.79 0.008,31.938 -0,39.858c-7.931,-0.018 -26.239,0.017 -28.376,-0c-3.737,-1.269 -3.298,-4.222 -3.341,-4.286c-0.008,-5.944 0.005,-25.672 0,-31.714c0.912,-3.742 4.198,-3.858 4.198,-3.858c0,0 26.092,-0.042 27.519,0Zm-26.194,37.183l23.622,0l0,-5.897l-23.622,0c-1.627,0 -2.948,1.32 -2.948,2.949c-0,1.628 1.321,2.948 2.948,2.948Z" style="fill:#f06;"/><g><circle cx="55.802" cy="68.593" r="6.429" style="fill:#f06;"/></g></g></g></svg>