<svg width="100" height="91" viewBox="0 0 100 91" fill="none" xmlns="http://www.w3.org/2000/svg">
<path d="M13.615 90.8365C13.55 90.8365 13.49 90.8365 13.42 90.8315C11.845 90.7515 10.3 90.4115 8.83001 89.8165C1.59501 86.8765 -1.89499 78.6115 1.04001 71.3815L37.645 7.25154C38.905 4.97154 40.815 3.06154 43.145 1.77154C49.97 -2.00846 58.6 0.476537 62.375 7.29654L98.74 70.9365C99.55 72.8415 99.895 74.3915 99.98 75.9715C100.175 79.7515 98.885 83.3765 96.355 86.1815C93.825 88.9865 90.35 90.6415 86.575 90.8315L13.975 90.8365H13.615Z" fill="#AE0046"/>
<path fill-rule="evenodd" clip-rule="evenodd" d="M45.6253 35.1041C45.6253 32.6941 47.5903 30.7291 50.0003 30.7291C52.4103 30.7291 54.3753 32.6941 54.3753 35.1041V49.2441C54.3753 51.6591 52.4103 53.6191 50.0003 53.6191C47.5903 53.6191 45.6253 51.6591 45.6253 49.2441V35.1041ZM45.625 66.3495C45.625 63.9245 47.59 61.9495 50 61.9495C52.41 61.9495 54.375 63.8995 54.375 66.2945C54.375 68.7595 52.41 70.7245 50 70.7245C47.59 70.7245 45.625 68.7595 45.625 66.3495Z" fill="#FFFFFF"/>
</svg>
