<?xml version="1.0" encoding="UTF-8" standalone="no"?>
<!DOCTYPE svg PUBLIC "-//W3C//DTD SVG 1.1//EN" "http://www.w3.org/Graphics/SVG/1.1/DTD/svg11.dtd">
<svg width="100%" height="100%" viewBox="0 0 27 23" version="1.1" xmlns="http://www.w3.org/2000/svg" xmlns:xlink="http://www.w3.org/1999/xlink" xml:space="preserve" xmlns:serif="http://www.serif.com/" style="fill-rule:evenodd;clip-rule:evenodd;stroke-linejoin:round;stroke-miterlimit:2;">
    <g transform="matrix(0.24,0,0,0.24,-646.142,-155.051)">
        <path d="M2694,688L2694,716L2739,739C2739,739 2777.33,725.949 2790,721C2801.13,716.652 2808.51,706.184 2799,692C2799.06,691.672 2801,692 2801,692L2801,663C2801,663 2771.67,650.603 2764,647C2761.12,645.923 2759.46,645.551 2755,647C2744.33,650.167 2711.5,661.198 2700,666C2687.36,675.289 2694,688 2694,688ZM2700,696L2739,716C2739,716 2779.33,699.938 2789,698C2796.98,696.974 2802.72,706.759 2791,714C2781.5,718.771 2740,733 2740,733L2700,712L2700,696ZM2740,693L2796,673L2796,687L2740,708C2740,708 2708.38,692.204 2701,688C2693.93,683.969 2696.02,673.596 2706,677C2711.54,678.932 2740,693 2740,693Z" style="fill:white;"/>
    </g>
</svg>
