<?xml version="1.0" encoding="UTF-8" standalone="no"?>
<!DOCTYPE svg PUBLIC "-//W3C//DTD SVG 1.1//EN" "http://www.w3.org/Graphics/SVG/1.1/DTD/svg11.dtd">
<svg width="100%" height="100%" viewBox="0 0 104 82" version="1.1" xmlns="http://www.w3.org/2000/svg" xmlns:xlink="http://www.w3.org/1999/xlink" xml:space="preserve" xmlns:serif="http://www.serif.com/" style="fill-rule:evenodd;clip-rule:evenodd;stroke-linejoin:round;stroke-miterlimit:2;">
    <g transform="matrix(1,0,0,1,-65,-706.073)">
        <g transform="matrix(-0.981192,0,0,0.981192,587.307,306.728)">
            <path d="M449,418.451C449,417.098 447.902,416 446.549,416L429.451,416C428.098,416 427,417.098 427,418.451L427,487.549C427,488.902 428.098,490 429.451,490L446.549,490C447.902,490 449,488.902 449,487.549L449,418.451Z" style="fill:rgb(173,0,70);"/>
        </g>
        <g transform="matrix(-0.981192,0,0,1.10053,562.777,248.255)">
            <path d="M449,418.185C449,416.979 447.902,416 446.549,416L429.451,416C428.098,416 427,416.979 427,418.185L427,487.815C427,489.021 428.098,490 429.451,490L446.549,490C447.902,490 449,489.021 449,487.815L449,418.185Z" style="fill:rgb(173,0,70);"/>
        </g>
        <g transform="matrix(-0.981192,0,0,0.851417,538.248,370.318)">
            <path d="M449,418.825C449,417.266 447.902,416 446.549,416L429.451,416C428.098,416 427,417.266 427,418.825L427,487.175C427,488.734 428.098,490 429.451,490L446.549,490C447.902,490 449,488.734 449,487.175L449,418.825Z" style="fill:rgb(173,0,70);"/>
        </g>
        <g transform="matrix(-0.959001,-0.207496,-0.154686,0.714927,570.934,526.253)">
            <path d="M449,419.288C449,417.473 447.902,416 446.549,416L429.451,416C428.098,416 427,417.473 427,419.288L427,486.712C427,488.527 428.098,490 429.451,490L446.549,490C447.902,490 449,488.527 449,486.712L449,419.288Z" style="fill:rgb(173,0,70);"/>
        </g>
    </g>
</svg>
