<?xml version="1.0" encoding="UTF-8" standalone="no"?>
<!DOCTYPE svg PUBLIC "-//W3C//DTD SVG 1.1//EN" "http://www.w3.org/Graphics/SVG/1.1/DTD/svg11.dtd">
<svg width="100%" height="100%" viewBox="0 0 252 163" version="1.1" xmlns="http://www.w3.org/2000/svg" xmlns:xlink="http://www.w3.org/1999/xlink" xml:space="preserve" xmlns:serif="http://www.serif.com/" style="fill-rule:evenodd;clip-rule:evenodd;stroke-linejoin:round;stroke-miterlimit:2;">
    <g transform="matrix(0.24,0,0,0.24,-210.847,-182.401)">
        <g transform="matrix(7.36407,0,0,7.36407,850.916,1122.63)">
            <text x="0px" y="0px" style="font-family:'Poppins-Regular', 'Poppins';font-size:50px;fill:white;">my</text>
        </g>
        <g transform="matrix(512.918,0,0,497.009,1517.46,1033.02)">
            <path d="M0.452,0.257L0.451,-0.549L0.532,-0.549L0.532,0.257L0.452,0.257Z" style="fill:white;fill-rule:nonzero;"/>
        </g>
        <g transform="matrix(512.918,0,0,497.009,1594.03,1033.02)">
            <path d="M0.452,0.257L0.451,-0.549L0.532,-0.549L0.531,0.257L0.452,0.257Z" style="fill:white;fill-rule:nonzero;"/>
        </g>
        <g transform="matrix(523.212,0,0,503.07,1406.24,1033.09)">
            <path d="M0.077,0.254L0.319,-0.335L0.397,-0.335L0.154,0.254L0.077,0.254Z" style="fill:white;fill-rule:nonzero;"/>
            <g>
                <clipPath id="_clip1">
                    <path d="M0.077,0.254L0.319,-0.335L0.397,-0.335L0.154,0.254L0.077,0.254Z"/>
                </clipPath>
                <g clip-path="url(#_clip1)">
                    <g transform="matrix(1,0,0,1.36929,0.396372,-0.0759102)">
                        <path d="M0.077,0.254L0.451,-0.328L0.533,-0.328L0.154,0.254L0.077,0.254Z" style="fill:white;fill-rule:nonzero;"/>
                    </g>
                </g>
            </g>
        </g>
        <g transform="matrix(523.212,0,0,688.847,1481.49,985.945)">
            <path d="M0.077,0.254L0.395,-0.328L0.477,-0.328L0.154,0.254L0.077,0.254Z" style="fill:white;fill-rule:nonzero;"/>
        </g>
        <g transform="matrix(7.36407,0,0,7.36407,850.916,1433.38)">
            <text x="0px" y="0px" style="font-family:'Poppins-Regular', 'Poppins';font-size:50px;fill:white;">books</text>
        </g>
    </g>
</svg>
