<?xml version="1.0" encoding="UTF-8" standalone="no"?>
<!DOCTYPE svg PUBLIC "-//W3C//DTD SVG 1.1//EN" "http://www.w3.org/Graphics/SVG/1.1/DTD/svg11.dtd">
<svg width="100%" height="100%" viewBox="0 0 127 127" version="1.1" xmlns="http://www.w3.org/2000/svg" xmlns:xlink="http://www.w3.org/1999/xlink" xml:space="preserve" xmlns:serif="http://www.serif.com/" style="fill-rule:evenodd;clip-rule:evenodd;stroke-linejoin:round;stroke-miterlimit:2;">
    <g transform="matrix(1,0,0,1,-0.0028,0)">
        <g transform="matrix(0.24,0,0,0.24,-1252.76,-346.966)">
            <g transform="matrix(3.78788,0,0,4.16667,5319.64,1445.69)">
                <path d="M60,3.023C60,1.355 58.51,0 56.675,0L30.325,0C28.49,0 27,1.355 27,3.023L27,123.977C27,125.645 28.49,127 30.325,127L56.675,127C58.51,127 60,125.645 60,123.977L60,3.023Z" style="fill:white;"/>
            </g>
        </g>
        <g transform="matrix(0.24,0,0,0.24,-1252.76,-346.966)">
            <g transform="matrix(2.31941e-16,-3.78788,4.16667,2.55135e-16,5219.85,1873.04)">
                <path d="M60,3.023C60,1.355 58.51,0 56.675,0L30.325,0C28.49,0 27,1.355 27,3.023L27,123.977C27,125.645 28.49,127 30.325,127L56.675,127C58.51,127 60,125.645 60,123.977L60,3.023Z" style="fill:white;"/>
            </g>
        </g>
    </g>
</svg>
