<?xml version="1.0" encoding="UTF-8" standalone="no"?><!DOCTYPE svg PUBLIC "-//W3C//DTD SVG 1.1//EN" "http://www.w3.org/Graphics/SVG/1.1/DTD/svg11.dtd"><svg width="100%" height="100%" viewBox="0 0 75 75" version="1.1" xmlns="http://www.w3.org/2000/svg" xmlns:xlink="http://www.w3.org/1999/xlink" xml:space="preserve" xmlns:serif="http://www.serif.com/" style="fill-rule:evenodd;clip-rule:evenodd;stroke-linejoin:round;stroke-miterlimit:2;"><clipPath id="_clip1"><rect x="0" y="0" width="75" height="75"/></clipPath><g clip-path="url(#_clip1)"><g><g><path d="M15.802,52.546c3.284,-0.417 19.693,1.668 19.693,1.668l-0,20.434l-19.693,-1.251c0,-0 0.014,-2.502 0,-2.502c5.487,-2.411 5.61,-10.622 -0.233,-13.7c0.036,-1.551 0.197,-4.57 0.233,-4.649Z" style="fill:#f06;"/></g><g><path d="M59.077,52.546c-3.284,-0.417 -19.693,1.668 -19.693,1.668l0,20.434l19.693,-1.251c-0,-0 -0.014,-2.502 -0,-2.502c-5.487,-2.411 -5.61,-10.622 0.233,-13.7c-0.036,-1.551 -0.197,-4.57 -0.233,-4.649Z" style="fill:#f06;"/></g><g><ellipse cx="8.47" cy="64.403" rx="8.472" ry="7.715" style="fill:#f06;"/></g><g><ellipse cx="66.173" cy="64.403" rx="8.472" ry="7.715" style="fill:#f06;"/></g><g><path d="M12.597,54.214c0.004,0.004 0.004,-0 -0,-0c-0.706,-10.53 24.885,-2.502 24.885,-2.502c0,-0 25.632,-7.457 25.037,2.881c-0.014,0.025 -0.018,0.038 -0.004,0.038c-0,-0.013 -0,-0.025 0.004,-0.038c0.151,-0.263 2.02,-1.897 6.865,-1.63c-3.742,-13.625 -12.773,-12.215 -12.823,-12.511c-6.297,-9.788 7.918,-40.61 -19.079,-40.452c-28.375,0.059 -11.801,31.206 -19.39,40.452c-0.16,0.046 -7.785,-0.626 -12.823,12.511c4.726,-1.055 7.241,1.151 7.328,1.251Zm36.637,-14.592c-0.064,0.012 -2.217,-0.988 -3.206,-3.34c-6.228,4.67 -9.801,4.595 -16.945,-0c-1.195,2.318 -3.503,3.344 -3.549,3.336l-0.005,-0l0.005,-0c2.455,5.78 18.548,8.14 23.7,0.004l-0,-0.004l-0,0.004Zm-24.73,-19.605c2.66,-17.102 16.505,2.236 25.188,1.227c4.048,-4.267 3.549,6.159 -0.458,5.029c-4.557,9.329 -7.364,10.213 -11.852,11.235c-4.827,-0.968 -8.45,-2.486 -11.889,-11.235c-3.128,-0.521 -4.081,-7.14 -0.989,-6.256Z" style="fill:#f06;"/></g></g></g></svg>